<svg class="fill-primary h-full" xmlns="http://www.w3.org/2000/svg" width="281.983" height="282.987" viewBox="0 0 281 282" fill="#ef6036">
  <path fill-rule="evenodd" d="M140.294 281.99C62.811 281.99 0 218.86 0 140.99S62.811 0 140.294 0s140.293 63.13 140.293 140.99-62.811 141-140.293 141Zm-.044-53.93 49.61-22.16v-70.02L172 132.4l-.015 61.63-31.738 14.29-31.377-14.3.007-61.65-17.871 3.49v70.15Zm49.61-158.39-49.579-8.65-49.272 8.65v18.27l49.272-8.73 49.579 8.73V69.67Zm9.2 29.74-58.783-11.44-58.419 11.41v28.91l36.168-7.09v66.99l22.251 9.96 22.55-9.96v-66.94l36.233 7.08V99.41Z"></path>
</svg>
